<?xml version="1.0" standalone="no"?>
<!DOCTYPE svg PUBLIC "-//W3C//DTD SVG 20010904//EN"
 "http://www.w3.org/TR/2001/REC-SVG-20010904/DTD/svg10.dtd">
<svg version="1.0" xmlns="http://www.w3.org/2000/svg"
 width="190.000000pt" height="190.000000pt" viewBox="0 0 190.000000 190.000000"
 preserveAspectRatio="xMidYMid meet">
<metadata>
Created by potrace 1.11, written by Peter Selinger 2001-2013
</metadata>
<g transform="translate(0.000000,190.000000) scale(0.100000,-0.100000)"
fill="#000000" stroke="none">
<path d="M6 1884 c-10 -25 -7 -136 3 -129 5 3 12 1 15 -4 3 -5 22 -12 41 -15
25 -5 35 -12 35 -26 0 -10 -5 -22 -10 -25 -6 -4 -10 -3 -9 2 1 4 -1 16 -5 25
-10 21 -28 14 -19 -7 3 -9 0 -22 -6 -29 -15 -18 0 -29 26 -19 17 6 17 6 1 -10
-21 -22 -50 -7 -65 32 -8 21 -10 14 -11 -43 -2 -43 2 -74 10 -84 11 -13 11
-14 0 -8 -10 6 -12 -16 -11 -103 1 -93 3 -111 17 -114 15 -4 15 -5 0 -6 -17
-1 -18 -40 -18 -661 l0 -660 58 0 57 0 22 199 c34 310 59 364 197 428 174 80
314 159 356 199 42 40 77 61 52 32 -11 -15 4 -125 20 -145 5 -7 7 -21 4 -31
-4 -12 -1 -22 7 -25 7 -2 19 -28 27 -56 7 -28 17 -51 21 -51 8 0 24 -40 21
-52 -1 -5 3 -7 10 -5 7 1 13 -5 13 -13 1 -8 8 -31 17 -50 9 -19 14 -38 12 -42
-3 -5 -1 -8 3 -8 11 0 33 -53 43 -105 7 -36 7 -38 -6 -20 -8 10 -12 28 -8 39
4 15 3 17 -4 7 -8 -10 -13 -8 -25 10 -12 17 -14 26 -5 36 16 20 1 16 -20 -5
-22 -22 -18 -40 15 -53 20 -7 22 -11 11 -23 -11 -12 -14 -12 -19 2 -4 11 -8
12 -13 4 -3 -6 -14 -8 -23 -5 -12 5 -15 2 -10 -10 3 -9 5 -17 3 -17 -6 0 -56
76 -56 86 0 5 10 -6 22 -24 15 -25 23 -30 29 -20 14 21 10 41 -5 35 -9 -4 -19
5 -26 24 -11 26 -21 34 -42 30 -16 -2 -7 17 13 31 24 16 20 52 -7 62 -8 3 -12
2 -9 -4 14 -23 -19 -7 -47 23 -22 23 -27 26 -19 10 20 -40 3 -25 -33 29 l-35
52 34 23 c19 13 35 28 35 33 0 6 -8 3 -17 -5 -10 -7 -29 -22 -42 -32 l-23 -19
37 -69 c20 -39 44 -78 52 -87 8 -10 13 -24 9 -33 -3 -9 -2 -14 3 -11 5 3 11
-3 14 -14 3 -11 1 -20 -4 -20 -5 0 -9 -5 -9 -11 0 -6 6 -9 14 -6 10 4 18 -4
25 -24 9 -26 8 -29 -12 -30 -17 -1 -18 -2 -4 -6 18 -5 24 -23 7 -23 -17 0 -11
-48 7 -59 21 -11 11 -26 -12 -18 -8 4 -15 18 -15 34 0 35 -19 69 -21 38 -1
-11 -1 -26 0 -34 2 -7 -2 -10 -8 -6 -6 3 -11 1 -11 -4 0 -19 -28 -12 -35 8 -5
18 -31 21 -66 7 -13 -6 -15 4 -15 62 l1 69 25 -14 c24 -14 24 -14 5 1 -17 14
-18 18 -5 26 13 8 13 10 -1 10 -19 0 -42 24 -33 33 4 3 13 -1 22 -10 14 -14
16 -14 22 2 5 16 7 16 20 1 7 -10 20 -14 28 -11 11 4 13 -2 10 -25 -3 -19 -1
-27 5 -21 15 15 4 56 -16 55 -12 -1 -20 7 -24 28 -3 18 -15 33 -28 38 -21 8
-22 12 -14 60 15 93 31 119 74 120 16 0 13 4 -14 21 -37 22 -41 21 -44 -9 0
-11 -4 -19 -8 -16 -10 6 -31 -24 -34 -49 -1 -12 -3 -27 -4 -34 0 -7 -12 -24
-26 -39 -24 -25 -34 -51 -17 -40 4 2 8 -7 7 -22 0 -16 -6 -26 -13 -25 -7 2
-12 -2 -12 -8 0 -6 6 -9 14 -6 15 6 30 -16 19 -27 -4 -3 -16 -6 -29 -6 -12 0
-24 -4 -26 -10 -2 -6 -8 -6 -18 0 -13 8 -13 10 2 10 23 0 32 17 16 33 -10 12
-15 10 -30 -7 -14 -17 -17 -17 -12 -3 4 11 2 16 -7 14 -8 -2 -11 -2 -7 0 5 3
8 13 8 24 0 13 -7 19 -24 19 -13 0 -29 7 -36 15 -9 11 -17 12 -31 4 -11 -5
-30 -7 -42 -3 -19 5 -17 2 8 -20 17 -14 25 -26 19 -26 -6 0 -17 6 -23 13 -14
17 -72 9 -88 -12 -15 -21 -7 -32 22 -27 30 6 71 -25 79 -59 4 -14 11 -23 16
-20 5 3 11 1 14 -4 3 -5 -1 -11 -9 -15 -8 -3 -15 -2 -15 3 0 4 -13 8 -30 9
-23 0 -30 -4 -30 -19 0 -10 6 -19 13 -19 9 0 8 -3 -2 -9 -10 -7 -11 -13 -2
-30 14 -25 23 -28 14 -3 -6 15 -5 15 10 3 22 -17 13 -31 -18 -29 -22 2 -25 7
-25 40 0 21 -4 38 -10 38 -10 0 -15 -25 -10 -45 2 -5 3 -20 3 -32 1 -16 9 -24
29 -28 15 -4 28 -11 28 -16 0 -12 -22 -12 -54 1 -34 12 -25 -13 10 -28 13 -7
24 -16 24 -22 0 -6 5 -8 10 -5 6 4 9 -7 8 -28 -3 -33 -18 -42 -18 -11 0 9 -5
12 -11 8 -8 -4 -9 0 -4 15 3 12 2 21 -4 21 -5 0 -12 -8 -14 -17 -3 -11 -5 -7
-6 10 -1 16 -5 26 -11 22 -6 -4 -7 -11 -4 -17 5 -7 1 -9 -9 -5 -11 4 -14 2
-10 -9 3 -8 -1 -14 -11 -14 -9 0 -16 -4 -16 -10 0 -13 28 -27 73 -35 27 -5 37
-12 33 -21 -5 -12 72 -14 478 -14 398 0 485 2 489 14 3 7 8 55 12 107 4 52 9
105 11 119 2 14 4 88 3 165 0 166 -1 160 7 206 5 32 -14 90 -53 161 -2 5 11 6
29 4 18 -3 36 -5 41 -5 4 -1 7 -8 7 -16 0 -15 2 -17 120 -85 137 -80 159 -97
169 -138 6 -20 15 -80 21 -132 6 -52 13 -110 16 -127 4 -21 2 -33 -5 -33 -6 0
-11 13 -11 28 0 15 -5 33 -10 38 -10 10 -14 30 -27 121 -6 49 -25 48 -19 0 2
-18 0 -41 -4 -52 -6 -16 -9 -11 -14 23 -5 26 -12 40 -19 35 -6 -4 -8 0 -4 10
3 8 0 20 -7 26 -21 18 0 -78 24 -111 24 -32 28 -100 6 -92 -8 3 -38 -2 -67
-10 -76 -23 -76 -23 -75 34 2 66 -10 64 -17 -2 -4 -29 -11 -54 -16 -56 -5 -2
-7 -13 -4 -25 4 -18 3 -19 -6 -7 -9 13 -11 13 -11 -2 0 -31 -30 -21 -30 10 -1
43 -20 2 -22 -45 0 -21 -6 -44 -12 -52 -8 -11 -8 -15 2 -18 6 -3 9 -9 6 -15
-4 -6 -9 -25 -11 -44 -4 -29 -2 -34 15 -34 11 0 23 6 25 13 4 9 6 9 6 0 1 -10
40 -13 161 -13 155 0 160 1 160 21 0 11 -5 29 -11 40 -14 26 -20 131 -9 149
10 17 16 -5 25 -100 11 -120 -1 -110 141 -110 l124 0 0 438 c0 434 0 437 -21
450 -17 11 -24 11 -33 1 -8 -9 -7 -11 6 -6 26 9 32 -10 8 -30 -11 -10 -20 -23
-20 -30 0 -32 -44 2 -74 56 -10 19 -14 31 -8 27 17 -10 19 62 3 121 -8 29 -18
53 -23 53 -4 0 -8 -4 -8 -10 0 -17 -18 -11 -23 8 -2 10 -10 -3 -20 -33 -9 -28
-16 -40 -16 -28 -1 32 -16 36 -31 8 -20 -37 -27 -31 -35 25 -4 28 -11 50 -16
50 -6 0 -9 -6 -8 -12 1 -7 -2 -28 -6 -46 -6 -24 -11 -30 -19 -22 -11 11 -12
18 -15 76 -1 35 -21 20 -21 -17 0 -33 -24 -66 -35 -49 -4 6 -2 16 3 23 8 10 2
12 -29 9 -26 -3 -39 0 -39 8 0 7 -7 10 -15 7 -8 -4 -17 -2 -20 3 -4 6 2 10 12
10 22 0 66 29 45 30 -7 0 -22 -5 -33 -11 -20 -10 -20 -10 -4 15 11 17 13 26 6
26 -7 0 -9 5 -5 12 5 8 2 9 -10 5 -13 -5 -17 -3 -13 6 3 8 -1 14 -10 14 -8 0
-17 -13 -20 -29 -4 -19 -12 -28 -24 -28 -11 0 -18 6 -16 13 1 6 -4 11 -11 9
-8 -1 -11 2 -7 8 3 5 1 10 -4 10 -6 0 -10 3 -10 8 1 4 1 18 0 31 -1 18 -5 22
-21 18 -17 -4 -19 -1 -14 19 4 14 7 66 7 117 1 75 -3 103 -22 152 -13 33 -32
68 -43 77 -11 10 -17 22 -13 28 3 5 0 10 -8 10 -8 0 -20 12 -26 28 -12 28 -64
69 -82 64 -6 -1 -8 2 -4 8 6 10 -7 14 -32 11 -7 -1 -13 2 -13 7 0 4 -12 7 -27
7 -16 -1 -35 2 -44 6 -10 5 -24 2 -35 -6 -11 -8 -29 -15 -41 -15 -12 0 -27 -8
-32 -17 -6 -10 -11 -14 -11 -10 0 5 -7 2 -15 -5 -53 -48 -69 -68 -55 -68 6 0
8 -5 4 -11 -3 -6 -17 -8 -32 -4 -22 5 -24 4 -13 -9 11 -13 10 -18 -2 -31 -9
-8 -20 -15 -25 -15 -12 0 -24 -29 -16 -41 3 -5 0 -9 -6 -9 -7 0 -9 -10 -5 -28
7 -34 -21 -72 -54 -72 -16 0 -21 6 -21 25 0 14 5 25 10 25 6 0 9 -5 8 -11 -2
-6 2 -13 8 -16 13 -4 25 27 28 75 3 42 -10 51 -19 13 -8 -37 -31 -59 -47 -43
-8 8 -16 4 -30 -14 -11 -13 -24 -22 -29 -19 -5 4 -9 2 -9 -4 0 -6 -9 -15 -20
-21 -14 -7 -20 -7 -20 0 0 5 6 10 13 10 9 0 11 12 9 38 -3 26 1 42 12 51 19
16 36 6 36 -21 0 -17 3 -18 15 -8 8 6 20 8 27 4 7 -4 10 -4 7 0 -4 4 0 28 7
53 16 53 12 67 -8 27 -7 -15 -19 -29 -26 -30 -7 -1 -8 0 -2 3 5 2 10 11 10 19
0 9 -5 12 -10 9 -6 -4 -17 -1 -25 5 -12 10 -15 9 -15 -3 0 -8 6 -18 13 -20 6
-3 2 -6 -11 -6 -13 -1 -21 3 -18 8 3 5 -1 12 -9 15 -11 4 -14 13 -9 33 4 16
11 31 17 34 13 9 -30 22 -43 14 -5 -3 -10 0 -10 8 0 8 -13 20 -29 27 -25 10
-32 9 -48 -7 -11 -11 -18 -24 -15 -31 2 -6 -8 -23 -22 -37 -14 -14 -20 -25
-14 -25 5 0 8 -6 5 -14 -3 -8 -2 -16 3 -18 11 -4 39 -138 29 -138 -4 0 -13 15
-20 33 -7 17 -15 36 -17 41 -3 5 0 6 7 2 7 -5 9 -1 5 9 -4 9 -9 13 -12 11 -3
-3 -11 -1 -19 5 -20 17 -16 2 13 -46 14 -25 23 -49 19 -55 -4 -6 1 -17 11 -24
12 -9 15 -19 9 -32 -6 -15 -8 -16 -12 -4 -3 8 -14 25 -25 36 -10 12 -18 25
-16 30 4 15 -56 93 -73 94 -26 0 -30 12 -10 26 10 7 19 25 19 40 0 16 -3 21
-8 14 -5 -7 -16 -10 -25 -6 -15 5 -14 8 6 26 23 18 25 18 38 2 13 -16 13 -15
6 3 -4 11 -9 28 -12 37 -3 9 -17 18 -32 20 -22 3 -26 7 -23 32 3 26 2 27 -12
13 -9 -9 -16 -20 -16 -26 0 -18 -14 -13 -28 10 -11 17 -11 24 -1 33 9 8 10 8
4 -3 -5 -9 -3 -12 6 -9 8 3 12 13 11 23 -3 15 -1 16 10 9 7 -6 23 -11 35 -12
19 -1 21 3 16 32 -4 23 0 38 13 51 17 17 17 18 -5 36 -18 15 -40 19 -96 19
-49 0 -75 -4 -78 -12 -4 -10 -6 -10 -6 0 -1 17 -18 15 -25 -4z m94 -4 c0 -5
-2 -10 -4 -10 -3 0 -8 5 -11 10 -3 6 -1 10 4 10 6 0 11 -4 11 -10z m-63 -57
c-3 -3 -10 -2 -16 2 -7 4 -7 10 2 20 10 11 13 11 15 -2 2 -8 1 -17 -1 -20z
m123 -173 c0 -12 -30 -34 -37 -26 -3 3 -2 6 4 6 6 0 13 6 16 14 4 10 0 12 -14
9 -14 -4 -19 0 -19 16 0 21 1 21 25 5 14 -9 25 -20 25 -24z m300 -10 c0 -5 -4
-10 -10 -10 -5 0 -10 5 -10 10 0 6 5 10 10 10 6 0 10 -4 10 -10z m600 -7 c14
-7 32 -13 41 -13 40 0 109 -114 109 -180 0 -38 -2 -40 -20 -30 -11 6 -20 21
-20 34 0 49 -13 89 -32 93 -10 3 -18 13 -18 22 -1 27 -23 48 -58 53 -17 2 -32
1 -32 -4 0 -4 -3 -7 -7 -6 -19 5 -52 -14 -47 -27 8 -20 -45 -44 -93 -43 -53 0
-66 -8 -59 -38 5 -19 3 -24 -14 -24 -11 0 -23 -7 -26 -15 -8 -19 -38 -19 -54
0 -22 26 -3 83 44 133 41 43 46 45 107 49 35 3 66 7 68 9 9 9 86 0 111 -13z
m-640 -9 c0 -8 5 -14 10 -14 7 0 7 -6 1 -19 -9 -16 -8 -18 8 -14 10 2 25 -3
34 -12 15 -14 15 -18 -1 -50 -13 -26 -25 -35 -54 -40 -21 -4 -41 -4 -46 -1
-17 10 -23 74 -11 119 9 37 15 45 35 45 14 0 24 -6 24 -14z m530 -154 c12 -8
10 -10 -10 -11 -14 -1 -29 -1 -34 0 -5 1 -12 -2 -15 -6 -19 -26 -97 -46 -89
-22 2 6 7 10 11 10 4 0 26 8 49 19 49 21 67 24 88 10z m120 0 c0 -5 -8 -10
-17 -10 -15 0 -16 2 -3 10 19 12 20 12 20 0z m-935 -10 c3 -5 1 -10 -4 -10 -6
0 -11 5 -11 10 0 6 2 10 4 10 3 0 8 -4 11 -10z m430 -9 c-3 -6 -14 -11 -23
-11 -15 1 -15 2 2 15 21 16 32 13 21 -4z m-175 -12 c0 -6 -4 -7 -10 -4 -5 3
-10 11 -10 16 0 6 5 7 10 4 6 -3 10 -11 10 -16z m270 -39 c0 -13 -20 -13 -40
0 -12 8 -9 10 13 10 15 0 27 -4 27 -10z m-620 -10 c0 -5 -2 -10 -4 -10 -3 0
-8 5 -11 10 -3 6 -1 10 4 10 6 0 11 -4 11 -10z m260 6 c0 -3 -4 -8 -10 -11 -5
-3 -10 -1 -10 4 0 6 5 11 10 11 6 0 10 -2 10 -4z m285 -27 c-4 -5 -2 -9 4 -9
5 0 11 5 13 12 6 17 56 1 69 -23 11 -21 19 -114 11 -136 -2 -7 -11 -13 -19
-13 -8 0 -12 -4 -8 -9 8 -14 -33 -39 -58 -35 -12 2 -16 2 -9 -2 16 -7 6 -24
-15 -24 -8 0 -24 -11 -34 -25 -16 -20 -24 -23 -43 -15 -30 11 -38 3 -25 -22 7
-13 7 -23 -1 -33 -6 -7 -10 -17 -9 -21 1 -5 1 -16 0 -24 -1 -11 -4 -11 -13 -2
-15 15 -19 120 -5 147 6 11 11 30 12 43 0 12 12 33 25 46 36 35 121 78 134 67
6 -4 25 -11 41 -15 43 -10 19 9 -30 24 -22 7 -46 18 -54 24 -11 8 -13 8 -8 -1
7 -12 -17 -43 -34 -43 -23 0 4 80 35 102 13 9 28 -1 21 -13z m-65 -29 c-7 -16
-16 -30 -21 -30 -12 0 -11 6 7 41 20 39 31 30 14 -11z m-42 -10 c-10 -30 -28
-36 -36 -12 -2 7 3 12 11 12 8 0 17 7 21 15 11 29 15 15 4 -15z m-61 -12 c-3
-8 -6 -5 -6 6 -1 11 2 17 5 13 3 -3 4 -12 1 -19z m-227 -9 c0 -5 -4 -9 -10 -9
-5 0 -10 7 -10 16 0 8 5 12 10 9 6 -3 10 -10 10 -16z m190 -6 c11 -10 20 -25
20 -35 0 -14 -5 -15 -31 -8 -41 12 -59 28 -59 52 0 17 5 19 25 14 14 -4 34
-14 45 -23z m640 -1 c0 -9 14 -31 30 -49 36 -38 37 -45 7 -34 -14 6 -30 5 -41
-1 -24 -14 -57 15 -38 34 7 7 12 24 12 38 0 15 3 30 6 33 10 10 24 -2 24 -21z
m-995 -1 c3 -5 1 -12 -5 -16 -5 -3 -10 1 -10 9 0 18 6 21 15 7z m25 -21 c0 -5
-5 -10 -11 -10 -5 0 -7 5 -4 10 3 6 8 10 11 10 2 0 4 -4 4 -10z m1179 -32 c0
-27 -2 -29 -8 -13 -5 11 -6 26 -4 33 8 21 13 13 12 -20z m-754 2 c-27 -12 -43
-12 -25 0 8 5 22 9 30 9 10 0 8 -3 -5 -9z m-51 -51 c-4 -13 -8 -30 -8 -38 -1
-8 -6 -16 -12 -18 -12 -4 -10 69 2 88 12 19 26 -8 18 -32z m773 9 c-3 -8 -6
-5 -6 6 -1 11 2 17 5 13 3 -3 4 -12 1 -19z m-227 8 c0 -3 -4 -8 -10 -11 -5 -3
-10 -1 -10 4 0 6 5 11 10 11 6 0 10 -2 10 -4z m294 -23 c-5 -5 -12 -12 -16
-18 -4 -6 -8 -2 -8 8 0 9 7 17 17 17 9 0 12 -3 7 -7z m-1193 -24 c-2 -8 -3
-24 -3 -36 -1 -27 -36 -42 -49 -22 -14 22 -10 36 5 17 12 -16 14 -16 26 7 7
13 10 31 6 40 -4 11 -2 15 6 12 7 -2 11 -11 9 -18z m648 -33 c-5 -6 -9 -15 -9
-20 0 -6 5 -4 11 4 9 12 10 12 5 -4 -4 -11 0 -23 10 -30 10 -8 14 -22 12 -41
l-4 -30 -11 25 c-6 14 -18 32 -27 39 -9 7 -14 17 -11 21 3 5 1 11 -5 15 -5 3
-10 2 -10 -3 0 -5 -10 -12 -22 -15 -20 -5 -19 -3 7 18 17 14 31 29 31 35 3 20
4 21 18 8 9 -8 11 -17 5 -22z m-584 -14 c-4 -4 -10 -1 -12 6 -4 10 -8 10 -21
0 -14 -12 -14 -10 -3 10 11 20 13 21 28 7 8 -9 12 -19 8 -23z m511 9 c-15 -29
-44 -47 -55 -35 -5 5 56 64 66 64 2 0 -3 -13 -11 -29z m749 -1 c-3 -5 -11 -10
-16 -10 -6 0 -7 5 -4 10 3 6 11 10 16 10 6 0 7 -4 4 -10z m-1145 -4 c0 -2 -7
-6 -15 -10 -8 -3 -15 -1 -15 4 0 6 7 10 15 10 8 0 15 -2 15 -4z m-30 -37 c0
-6 -7 -8 -16 -5 -12 5 -15 2 -10 -11 6 -14 4 -15 -5 -6 -6 6 -8 16 -5 22 9 14
36 14 36 0z m80 -25 c0 -8 -5 -12 -10 -9 -6 4 -8 11 -5 16 9 14 15 11 15 -7z
m346 -11 c-10 -10 -19 5 -10 18 6 11 8 11 12 0 2 -7 1 -15 -2 -18z m-66 7 c0
-12 -8 -12 -35 0 -18 8 -17 9 8 9 15 1 27 -3 27 -9z m35 0 c-3 -5 -11 -10 -16
-10 -6 0 -7 5 -4 10 3 6 11 10 16 10 6 0 7 -4 4 -10z m-251 -35 c28 -21 12
-30 -24 -15 -23 9 -28 15 -18 21 17 11 20 11 42 -6z m181 5 c-3 -5 -13 -10
-21 -10 -8 0 -14 -4 -14 -10 0 -5 -7 -10 -15 -10 -13 0 -13 3 -3 20 7 11 23
20 36 20 13 0 20 -4 17 -10z m-245 -26 c0 -2 -7 -4 -15 -4 -8 0 -15 4 -15 10
0 5 7 7 15 4 8 -4 15 -8 15 -10z m-60 -4 c-8 -5 -19 -10 -25 -10 -5 0 -3 5 5
10 8 5 20 10 25 10 6 0 3 -5 -5 -10z m99 -73 c1 -4 -8 -3 -20 3 -17 10 -18 14
-8 27 12 13 14 13 20 -4 4 -10 8 -22 8 -26z m31 -1 c0 -3 -4 -8 -10 -11 -5 -3
-10 -1 -10 4 0 6 5 11 10 11 6 0 10 -2 10 -4z m1514 -229 c-3 -9 -11 -17 -16
-17 -6 0 -7 7 -4 16 3 9 6 21 6 27 0 8 3 8 10 1 6 -6 8 -18 4 -27z m-71 -64
c-7 -2 -19 -2 -25 0 -7 3 -2 5 12 5 14 0 19 -2 13 -5z m-1223 -37 c0 -3 -4 -8
-10 -11 -5 -3 -10 -1 -10 4 0 6 5 11 10 11 6 0 10 -2 10 -4z m140 -166 c0 -5
-2 -10 -4 -10 -3 0 -8 5 -11 10 -3 6 -1 10 4 10 6 0 11 -4 11 -10z m45 0 c3
-5 -3 -10 -14 -10 -12 0 -21 5 -21 10 0 6 6 10 14 10 8 0 18 -4 21 -10z m-171
-9 c3 -5 -1 -11 -9 -14 -9 -4 -12 -1 -8 9 6 16 10 17 17 5z m-57 -86 c5 -4 3
-5 -3 -2 -7 4 -14 0 -18 -8 -3 -10 1 -15 11 -15 14 0 15 -2 4 -12 -11 -10 -14
-10 -18 0 -7 18 -23 15 -23 -5 0 -14 -2 -15 -12 -4 -11 11 -10 14 0 18 6 3 10
9 6 14 -14 24 33 37 53 14z m367 -115 c-13 -13 -16 -13 -23 -1 -12 19 9 42 25
27 10 -9 9 -14 -2 -26z m626 20 c0 -5 -4 -10 -10 -10 -5 0 -10 5 -10 10 0 6 5
10 10 10 6 0 10 -4 10 -10z m-1228 -42 c-8 -8 -9 -4 -5 13 4 13 8 18 11 10 2
-7 -1 -18 -6 -23z m1163 22 c-3 -5 -12 -7 -20 -3 -21 7 -19 13 6 13 11 0 18
-4 14 -10z m-70 -20 c-3 -5 -13 -10 -21 -10 -8 0 -14 5 -14 10 0 6 9 10 21 10
11 0 17 -4 14 -10z m82 -6 c-16 -9 -31 -13 -34 -10 -3 3 5 10 18 15 37 15 47
12 16 -5z m-807 -44 c0 -5 -2 -10 -4 -10 -3 0 -8 5 -11 10 -3 6 -1 10 4 10 6
0 11 -4 11 -10z m-335 -21 c15 -14 -7 -10 -35 7 l-25 15 25 -7 c14 -3 29 -10
35 -15z m605 -92 c0 -16 -18 3 -23 25 -6 22 -5 22 8 4 8 -11 15 -24 15 -29z"/>
<path d="M445 1550 c4 -6 11 -8 16 -5 14 9 11 15 -7 15 -8 0 -12 -5 -9 -10z"/>
<path d="M517 1233 c-10 -9 -9 -43 2 -43 5 0 11 6 14 13 6 17 -7 40 -16 30z"/>
<path d="M550 1219 c0 -5 5 -7 10 -4 6 3 10 8 10 11 0 2 -4 4 -10 4 -5 0 -10
-5 -10 -11z"/>
<path d="M520 1173 c-18 -8 -44 -33 -33 -33 4 0 25 6 46 14 29 10 35 15 22 20
-9 3 -17 6 -18 5 -1 0 -9 -3 -17 -6z"/>
<path d="M500 329 c0 -5 5 -7 10 -4 6 3 10 8 10 11 0 2 -4 4 -10 4 -5 0 -10
-5 -10 -11z"/>
<path d="M337 1888 c23 -11 40 -44 29 -55 -3 -3 2 -12 12 -19 9 -7 12 -14 6
-14 -6 0 -17 7 -24 15 -7 8 -10 15 -6 15 3 0 -2 8 -11 18 -10 11 -22 17 -26
14 -5 -2 0 -10 10 -18 12 -9 14 -13 4 -14 -7 0 -11 -6 -7 -15 5 -13 -10 -20
-36 -16 -5 0 -8 -6 -8 -14 0 -8 -5 -15 -11 -15 -5 0 -7 -5 -3 -11 4 -7 9 -7
13 -1 3 5 16 12 27 16 17 5 22 3 20 -11 0 -9 7 -19 17 -21 10 -2 17 3 17 11 0
8 6 17 13 20 10 4 13 -2 10 -21 l-3 -27 9 25 c4 14 16 40 25 58 11 21 15 44
11 61 -5 25 -10 28 -58 29 -44 1 -49 0 -30 -10z m73 -34 c0 -24 -17 -15 -22
11 -4 20 -3 23 8 14 8 -6 14 -18 14 -25z"/>
<path d="M528 1889 c-22 -12 -23 -29 -3 -29 14 0 20 -14 15 -35 -1 -5 -3 -16
-3 -22 0 -17 -16 -16 -23 1 -8 20 -44 28 -44 10 0 -8 15 -21 34 -29 18 -8 36
-21 39 -28 3 -8 17 -17 31 -19 15 -3 23 -1 19 5 -3 5 0 7 8 5 8 -3 22 4 32 15
9 11 19 18 22 16 2 -3 -7 -17 -21 -32 -14 -15 -21 -27 -17 -28 4 0 -5 -5 -22
-10 -19 -5 -31 -5 -36 2 -3 6 -18 9 -32 7 -43 -5 -16 -29 36 -31 39 -2 44 -4
36 -19 -16 -30 -9 -29 20 4 16 18 25 35 20 36 -5 2 0 17 12 33 11 16 25 26 30
23 6 -3 13 3 16 15 7 29 13 26 48 -19 17 -21 34 -39 39 -40 5 0 2 8 -7 18 -22
24 -12 75 14 67 10 -4 27 -2 36 4 12 7 14 10 4 11 -8 0 -20 8 -27 18 -13 16
-15 15 -33 -8 -11 -14 -23 -21 -27 -18 -12 13 -13 73 -1 80 6 4 -21 6 -61 6
-43 -1 -72 -5 -72 -11 0 -7 -4 -7 -12 1 -16 16 -29 15 -22 -2 3 -7 -2 -16 -10
-19 -17 -7 -30 8 -21 23 8 12 5 12 -17 -1z m122 -19 c0 -5 -5 -10 -11 -10 -5
0 -7 5 -4 10 3 6 8 10 11 10 2 0 4 -4 4 -10z"/>
<path d="M1881 1886 c-9 -10 -8 -16 4 -26 13 -11 15 -8 15 14 0 30 -3 32 -19
12z"/>
<path d="M270 1830 c0 -5 5 -10 10 -10 6 0 10 5 10 10 0 6 -4 10 -10 10 -5 0
-10 -4 -10 -10z"/>
<path d="M1875 1760 c-3 -5 1 -10 9 -10 9 0 16 5 16 10 0 6 -4 10 -9 10 -6 0
-13 -4 -16 -10z"/>
<path d="M435 1750 c-3 -5 -1 -10 4 -10 6 0 11 5 11 10 0 6 -2 10 -4 10 -3 0
-8 -4 -11 -10z"/>
<path d="M780 1756 c0 -2 7 -9 15 -16 9 -7 15 -8 15 -2 0 5 -7 12 -15 16 -8 3
-15 4 -15 2z"/>
<path d="M195 1727 c0 -13 5 -24 11 -24 6 0 9 11 6 24 -2 13 -7 23 -11 23 -3
0 -6 -10 -6 -23z"/>
<path d="M455 1720 c-18 -20 -16 -38 3 -26 8 5 24 46 18 46 -2 0 -11 -9 -21
-20z"/>
<path d="M320 1720 c0 -10 26 -20 34 -13 11 12 6 19 -14 20 -11 1 -20 -2 -20
-7z"/>
<path d="M1816 1722 c-4 -7 -2 -19 4 -27 9 -11 9 -15 1 -15 -6 0 -11 3 -11 8
0 4 -11 8 -25 8 -31 2 -31 0 4 -36 27 -28 61 -33 61 -9 0 5 5 9 10 9 15 0 12
-21 -5 -40 -14 -16 -13 -19 10 -34 30 -20 26 -33 -10 -33 -25 0 -37 17 -12 17
6 1 -1 8 -17 16 -26 14 -30 14 -44 0 -14 -13 -12 -15 16 -11 18 2 32 2 32 -1
0 -6 -53 -28 -62 -26 -4 1 -5 -5 -2 -13 7 -18 24 -20 24 -3 0 6 3 8 6 5 4 -4
-1 -18 -10 -32 -10 -15 -15 -32 -12 -38 2 -7 5 -5 5 4 1 17 31 36 31 20 0 -5
-6 -11 -12 -14 -7 -2 -10 -8 -6 -12 4 -4 14 -3 21 3 8 7 17 9 20 5 4 -3 7 1 7
10 0 20 7 21 23 5 24 -26 14 -76 -22 -108 -25 -23 -31 -34 -22 -43 6 -6 11
-20 11 -31 0 -15 3 -17 11 -9 7 7 20 8 34 3 l22 -9 2 170 c2 133 -1 169 -11
169 -9 0 -10 3 -2 8 6 4 10 18 8 32 -1 14 -3 29 -3 34 -1 5 -7 3 -15 -3 -11
-9 -15 -8 -20 4 -3 9 -10 14 -15 11 -5 -4 -11 -1 -13 6 -3 9 -6 9 -12 0z"/>
<path d="M730 1706 c0 -16 -24 -28 -43 -21 -6 3 -18 -4 -25 -15 -10 -17 -10
-20 2 -20 8 0 17 6 19 13 4 9 8 8 16 -3 8 -12 13 -12 30 5 12 10 19 20 16 23
-3 3 0 11 6 19 9 10 8 13 -5 13 -9 0 -16 -6 -16 -14z"/>
<path d="M317 1673 c-3 -5 -1 -17 4 -28 6 -17 7 -16 6 8 -1 28 -3 32 -10 20z"/>
<path d="M612 1618 c6 -18 28 -21 28 -4 0 9 -7 16 -16 16 -9 0 -14 -5 -12 -12z"/>
<path d="M1737 1581 c3 -12 10 -21 15 -21 13 0 6 32 -9 37 -7 3 -9 -3 -6 -16z"/>
<path d="M260 1585 c0 -5 5 -17 10 -25 5 -8 10 -10 10 -5 0 6 -5 17 -10 25 -5
8 -10 11 -10 5z"/>
<path d="M1878 1259 c-10 -5 -18 -15 -18 -20 0 -6 4 -8 9 -5 5 3 12 -2 15 -11
6 -15 -8 -32 -27 -33 -5 0 -5 -5 -1 -11 4 -7 1 -10 -6 -7 -15 5 -50 -25 -50
-42 0 -5 -4 -10 -10 -10 -5 0 -8 -10 -6 -22 2 -13 -1 -29 -6 -35 -7 -9 -7 -13
0 -13 6 0 14 4 17 10 3 5 15 15 27 21 15 8 19 8 14 0 -5 -7 2 -11 18 -11 14 0
26 -4 26 -10 0 -5 -4 -10 -9 -10 -5 0 -14 -14 -20 -32 -6 -17 -22 -46 -36 -64
-17 -22 -20 -32 -10 -28 8 4 17 0 21 -9 6 -17 30 -12 54 12 12 11 15 48 17
178 1 90 1 163 0 163 -1 0 -10 -5 -19 -11z"/>
<path d="M1334 601 c20 -22 26 -25 26 -13 0 4 -10 13 -22 21 -23 14 -23 14 -4
-8z"/>
<path d="M1290 592 c0 -10 33 -42 43 -42 14 0 5 16 -18 33 -14 10 -25 14 -25
9z"/>
<path d="M748 523 c6 -2 12 -11 12 -18 0 -8 4 -17 10 -20 6 -4 7 1 3 10 -3 10
0 21 8 26 10 6 5 9 -16 8 -16 0 -24 -3 -17 -6z"/>
<path d="M1381 426 c-1 -23 46 -106 60 -106 11 0 4 16 -21 45 -10 11 -22 34
-28 50 -7 20 -11 24 -11 11z"/>
<path d="M1450 431 c0 -7 -5 -9 -12 -5 -7 5 -8 3 -3 -5 5 -9 10 -10 18 -2 6 6
8 14 4 18 -4 3 -7 1 -7 -6z"/>
<path d="M806 375 c4 -8 10 -12 15 -9 5 3 9 -2 9 -10 0 -9 5 -16 10 -16 16 0
12 22 -7 36 -24 18 -34 17 -27 -1z"/>
<path d="M857 379 c7 -7 15 -10 18 -7 3 3 -2 9 -12 12 -14 6 -15 5 -6 -5z"/>
<path d="M1457 373 c-20 -19 15 -84 47 -89 9 -1 14 2 10 7 -3 5 -13 9 -22 9
-13 0 -14 2 -4 9 10 6 10 10 -2 21 -9 7 -14 15 -12 19 7 10 -9 32 -17 24z"/>
<path d="M905 320 c3 -5 8 -10 11 -10 2 0 4 5 4 10 0 6 -5 10 -11 10 -5 0 -7
-4 -4 -10z"/>
<path d="M704 298 c-4 -5 -3 -12 0 -15 7 -8 36 4 36 15 0 11 -29 11 -36 0z"/>
<path d="M601 268 c-1 -29 3 -38 15 -38 12 0 14 3 6 13 -5 6 -12 23 -15 37 -3
18 -5 15 -6 -12z"/>
<path d="M190 210 c0 -5 4 -10 9 -10 6 0 13 5 16 10 3 6 -1 10 -9 10 -9 0 -16
-4 -16 -10z"/>
<path d="M185 10 c-3 -5 -1 -10 4 -10 6 0 11 5 11 10 0 6 -2 10 -4 10 -3 0 -8
-4 -11 -10z"/>
</g>
</svg>
